# ProBuilder 4.5.0
# https://unity3d.com/unity/features/worldbuilding/probuilder
# 5/13/2021 5:40:31 PM

mtllib ./Decorative_Torch_Holder.mtl
o Decorative Torch Holder

g Cone
v 0 0 0
v 0.09425044 0 0.7460696
v 3 1 0
v 3 0 0
v 0.3710799 0 1.445261
v 0.8130941 0 2.053641
v 1.392519 0 2.532984
v 2.072949 0 2.85317
v 2.811629 0 2.99408
v 3.562144 0 2.946862
v 4.277338 0 2.714481
v 4.912272 0 2.311539
v 5.427051 0 1.763355
v 5.78933 0 1.104374
v 5.976344 0 0.3759996
v 5.976344 0 -0.3759994
v 5.78933 0 -1.104374
v 5.427051 0 -1.763355
v 4.912272 0 -2.311539
v 4.277338 0 -2.714481
v 3.562143 0 -2.946862
v 2.811628 0 -2.99408
v 2.072949 0 -2.853169
v 1.39252 0 -2.532984
v 0.8130944 0 -2.053642
v 0.3710799 0 -1.445261
v 0.09425044 0 -0.7460694

vt 0 2.369174E-09
vt 0.7519994 0
vt 0.3759995 3.139845
vt 0.09425044 0.7460696
vt 3 0
vt 0.3710799 1.445261
vt 0.8130941 2.053641
vt 1.392519 2.532984
vt 2.072949 2.85317
vt 2.811629 2.99408
vt 3.562144 2.946862
vt 4.277338 2.714481
vt 4.912272 2.311539
vt 5.427051 1.763355
vt 5.78933 1.104374
vt 5.976344 0.3759996
vt 5.976344 -0.3759994
vt 5.78933 -1.104374
vt 5.427051 -1.763355
vt 4.912272 -2.311539
vt 4.277338 -2.714481
vt 3.562143 -2.946862
vt 2.811628 -2.99408
vt 2.072949 -2.853169
vt 1.39252 -2.532984
vt 0.8130944 -2.053642
vt 0.3710799 -1.445261
vt 0.09425044 -0.7460694

vn -0.3159758 0.9479272 0.03991699
vn 0 -1 0
vn -0.2961218 0.9479272 0.1172429
vn -0.2576615 0.9479272 0.187202
vn -0.2030113 0.9479272 0.2453986
vn -0.1356053 0.9479272 0.2881757
vn -0.05967841 0.9479272 0.3128459
vn 0.01999793 0.9479272 0.3178587
vn 0.09841787 0.9479272 0.3028992
vn 0.1706539 0.9479272 0.2689075
vn 0.2321672 0.9479272 0.2180193
vn 0.2790923 0.9479272 0.1534324
vn 0.3084812 0.9479272 0.07920447
vn 0.3184871 0.9479272 0
vn 0.3084813 0.9479272 -0.07920446
vn 0.2790923 0.9479272 -0.1534324
vn 0.2321672 0.9479272 -0.2180194
vn 0.1706539 0.9479272 -0.2689075
vn 0.09841798 0.9479272 -0.3028992
vn 0.01999785 0.9479272 -0.3178586
vn -0.05967852 0.9479272 -0.3128459
vn -0.1356052 0.9479272 -0.2881758
vn -0.2030113 0.9479272 -0.2453985
vn -0.2576614 0.9479272 -0.1872021
vn -0.2961218 0.9479272 -0.1172429
vn -0.3159757 0.9479272 -0.039917

usemtl New_Material
f 1/1/1 2/2/1 3/3/1
f 4/5/2 2/4/2 1/1/2
f 2/1/3 5/2/3 3/3/3
f 4/5/2 5/6/2 2/4/2
f 5/1/4 6/2/4 3/3/4
f 4/5/2 6/7/2 5/6/2
f 6/1/5 7/2/5 3/3/5
f 4/5/2 7/8/2 6/7/2
f 7/1/6 8/2/6 3/3/6
f 4/5/2 8/9/2 7/8/2
f 8/1/7 9/2/7 3/3/7
f 4/5/2 9/10/2 8/9/2
f 9/1/8 10/2/8 3/3/8
f 4/5/2 10/11/2 9/10/2
f 10/1/9 11/2/9 3/3/9
f 4/5/2 11/12/2 10/11/2
f 11/1/10 12/2/10 3/3/10
f 4/5/2 12/13/2 11/12/2
f 12/1/11 13/2/11 3/3/11
f 4/5/2 13/14/2 12/13/2
f 13/1/12 14/2/12 3/3/12
f 4/5/2 14/15/2 13/14/2
f 14/1/13 15/2/13 3/3/13
f 4/5/2 15/16/2 14/15/2
f 15/1/14 16/2/14 3/3/14
f 4/5/2 16/17/2 15/16/2
f 16/1/15 17/2/15 3/3/15
f 4/5/2 17/18/2 16/17/2
f 17/1/16 18/2/16 3/3/16
f 4/5/2 18/19/2 17/18/2
f 18/1/17 19/2/17 3/3/17
f 4/5/2 19/20/2 18/19/2
f 19/1/18 20/2/18 3/3/18
f 4/5/2 20/21/2 19/20/2
f 20/1/19 21/2/19 3/3/19
f 4/5/2 21/22/2 20/21/2
f 21/1/20 22/2/20 3/3/20
f 4/5/2 22/23/2 21/22/2
f 22/1/21 23/2/21 3/3/21
f 4/5/2 23/24/2 22/23/2
f 23/1/22 24/2/22 3/3/22
f 4/5/2 24/25/2 23/24/2
f 24/1/23 25/2/23 3/3/23
f 4/5/2 25/26/2 24/25/2
f 25/1/24 26/2/24 3/3/24
f 4/5/2 26/27/2 25/26/2
f 26/1/25 27/2/25 3/3/25
f 4/5/2 27/28/2 26/27/2
f 27/1/26 1/2/26 3/3/26
f 4/5/2 1/1/2 27/28/2

